<svg width="12" height="14" viewBox="0 0 12 14" fill="none" xmlns="http://www.w3.org/2000/svg">
<path d="M3.46667 10.5167C3.78889 10.8389 4.16944 11.0028 4.60833 11.0084C5.04722 11.0139 5.42778 10.8556 5.75 10.5334L6.68333 9.60002L4.4 7.31669L3.46667 8.25002C3.14444 8.57224 2.98333 8.95002 2.98333 9.38335C2.98333 9.81669 3.14444 10.1945 3.46667 10.5167ZM8.53333 5.48335C8.21111 5.17224 7.83056 5.01113 7.39167 5.00002C6.95278 4.98891 6.57222 5.14446 6.25 5.46669L5.33333 6.38335L7.61667 8.66669L8.53333 7.75002C8.85556 7.4278 9.01389 7.05002 9.00833 6.61669C9.00278 6.18335 8.84445 5.80558 8.53333 5.48335ZM1.33333 14C0.966667 14 0.652778 13.8695 0.391667 13.6084C0.130556 13.3472 0 13.0334 0 12.6667V3.33335C0 2.96669 0.130556 2.6528 0.391667 2.39169C0.652778 2.13058 0.966667 2.00002 1.33333 2.00002H4.13333C4.27778 1.60002 4.51944 1.2778 4.85833 1.03335C5.19722 0.788909 5.57778 0.666687 6 0.666687C6.42222 0.666687 6.80278 0.788909 7.14167 1.03335C7.48056 1.2778 7.72222 1.60002 7.86667 2.00002H10.6667C11.0333 2.00002 11.3472 2.13058 11.6083 2.39169C11.8694 2.6528 12 2.96669 12 3.33335V12.6667C12 13.0334 11.8694 13.3472 11.6083 13.6084C11.3472 13.8695 11.0333 14 10.6667 14H1.33333ZM6 2.83335C6.14444 2.83335 6.26389 2.78613 6.35833 2.69169C6.45278 2.59724 6.5 2.4778 6.5 2.33335C6.5 2.18891 6.45278 2.06946 6.35833 1.97502C6.26389 1.88058 6.14444 1.83335 6 1.83335C5.85556 1.83335 5.73611 1.88058 5.64167 1.97502C5.54722 2.06946 5.5 2.18891 5.5 2.33335C5.5 2.4778 5.54722 2.59724 5.64167 2.69169C5.73611 2.78613 5.85556 2.83335 6 2.83335Z" fill="#1C1B1F"/>
</svg>
