<svg width="17" height="15" viewBox="0 0 17 15" fill="none" xmlns="http://www.w3.org/2000/svg">
<path d="M11.6316 8.94737C10.886 8.94737 10.2522 8.6864 9.73026 8.16447C9.20833 7.64254 8.94737 7.00877 8.94737 6.26316C8.94737 5.51754 9.20833 4.88377 9.73026 4.36184C10.2522 3.83991 10.886 3.57895 11.6316 3.57895C12.3772 3.57895 13.011 3.83991 13.5329 4.36184C14.0548 4.88377 14.3158 5.51754 14.3158 6.26316C14.3158 7.00877 14.0548 7.64254 13.5329 8.16447C13.011 8.6864 12.3772 8.94737 11.6316 8.94737ZM6.26316 14.3158V12.6158C6.26316 12.3026 6.33772 12.0044 6.48684 11.7211C6.63596 11.4377 6.84474 11.214 7.11316 11.05C7.78421 10.6474 8.49627 10.3454 9.24934 10.1441C10.0024 9.94276 10.7965 9.8421 11.6316 9.8421C12.4667 9.8421 13.2607 9.94276 14.0138 10.1441C14.7669 10.3454 15.4789 10.6474 16.15 11.05C16.4184 11.214 16.6272 11.4377 16.7763 11.7211C16.9254 12.0044 17 12.3026 17 12.6158V14.3158H6.26316ZM8.18684 12.5263H15.0763C14.5544 12.2281 14.0026 12.0044 13.4211 11.8553C12.8395 11.7061 12.243 11.6316 11.6316 11.6316C11.0202 11.6316 10.4237 11.7061 9.8421 11.8553C9.26053 12.0044 8.70877 12.2281 8.18684 12.5263ZM11.6316 7.15789C11.8851 7.15789 12.0976 7.07215 12.2691 6.90066C12.4406 6.72917 12.5263 6.51667 12.5263 6.26316C12.5263 6.00965 12.4406 5.79715 12.2691 5.62566C12.0976 5.45417 11.8851 5.36842 11.6316 5.36842C11.3781 5.36842 11.1656 5.45417 10.9941 5.62566C10.8226 5.79715 10.7368 6.00965 10.7368 6.26316C10.7368 6.51667 10.8226 6.72917 10.9941 6.90066C11.1656 7.07215 11.3781 7.15789 11.6316 7.15789ZM0 8.94737V7.15789H7.15789V8.94737H0ZM0 1.78947V0H10.7368V1.78947H0ZM7.24737 5.36842H0V3.57895H8.05263C7.84386 3.83246 7.6761 4.10833 7.54934 4.40658C7.42259 4.70482 7.32193 5.02544 7.24737 5.36842Z" fill="black"/>
</svg>
