<svg width="14" height="16" viewBox="0 0 14 16" fill="none" xmlns="http://www.w3.org/2000/svg">
<path d="M10.25 14.7167L11.0167 13.9501L8.05 10.9834L7.28333 11.7501C6.87222 12.1612 6.66667 12.6556 6.66667 13.2334C6.66667 13.8112 6.87222 14.3056 7.28333 14.7167C7.69444 15.1279 8.18889 15.3334 8.76667 15.3334C9.34444 15.3334 9.83889 15.1279 10.25 14.7167ZM11.95 13.0167L12.7167 12.2501C13.1278 11.839 13.3333 11.3445 13.3333 10.7667C13.3333 10.189 13.1278 9.69453 12.7167 9.28341C12.3056 8.8723 11.8111 8.66675 11.2333 8.66675C10.6556 8.66675 10.1611 8.8723 9.75 9.28341L8.98333 10.0501L11.95 13.0167ZM2.66667 6.00008H9.33333V4.66675H2.66667V6.00008ZM6 2.83341C6.14444 2.83341 6.26389 2.78619 6.35833 2.69175C6.45278 2.5973 6.5 2.47786 6.5 2.33341C6.5 2.18897 6.45278 2.06953 6.35833 1.97508C6.26389 1.88064 6.14444 1.83341 6 1.83341C5.85556 1.83341 5.73611 1.88064 5.64167 1.97508C5.54722 2.06953 5.5 2.18897 5.5 2.33341C5.5 2.47786 5.54722 2.5973 5.64167 2.69175C5.73611 2.78619 5.85556 2.83341 6 2.83341ZM5.41667 14.0001H1.33333C0.966667 14.0001 0.652778 13.8695 0.391667 13.6084C0.130556 13.3473 0 13.0334 0 12.6667V3.33341C0 2.96675 0.130556 2.65286 0.391667 2.39175C0.652778 2.13064 0.966667 2.00008 1.33333 2.00008H4.13333C4.27778 1.60008 4.51944 1.27786 4.85833 1.03341C5.19722 0.78897 5.57778 0.666748 6 0.666748C6.42222 0.666748 6.80278 0.78897 7.14167 1.03341C7.48056 1.27786 7.72222 1.60008 7.86667 2.00008H10.6667C11.0333 2.00008 11.3472 2.13064 11.6083 2.39175C11.8694 2.65286 12 2.96675 12 3.33341V7.41675C11.5333 7.30564 11.0694 7.2973 10.6083 7.39175C10.1472 7.48619 9.72222 7.66119 9.33333 7.91675V7.33342H2.66667V8.66675H8.48333L7.15 10.0001H2.66667V11.3334H5.91667C5.66111 11.7223 5.48611 12.1473 5.39167 12.6084C5.29722 13.0695 5.30556 13.5334 5.41667 14.0001Z" fill="#1C1B1F"/>
</svg>
