<svg width="16" height="16" viewBox="0 0 16 16" fill="none" xmlns="http://www.w3.org/2000/svg">
<path d="M11.6 14.4H12.4V12.4H14.4V11.6H12.4V9.6H11.6V11.6H9.6V12.4H11.6V14.4ZM12 16C10.8933 16 9.95 15.61 9.17 14.83C8.39 14.05 8 13.1067 8 12C8 10.8933 8.39 9.95 9.17 9.17C9.95 8.39 10.8933 8 12 8C13.1067 8 14.05 8.39 14.83 9.17C15.61 9.95 16 10.8933 16 12C16 13.1067 15.61 14.05 14.83 14.83C14.05 15.61 13.1067 16 12 16ZM3.2 4.8H11.2V3.2H3.2V4.8ZM6.94 14.4H1.6C1.16 14.4 0.783333 14.2433 0.47 13.93C0.156667 13.6167 0 13.24 0 12.8V1.6C0 1.16 0.156667 0.783333 0.47 0.47C0.783333 0.156667 1.16 0 1.6 0H12.8C13.24 0 13.6167 0.156667 13.93 0.47C14.2433 0.783333 14.4 1.16 14.4 1.6V6.96C14.0133 6.77333 13.6233 6.63333 13.23 6.54C12.8367 6.44667 12.4267 6.4 12 6.4C11.8533 6.4 11.7167 6.40333 11.59 6.41C11.4633 6.41667 11.3333 6.43333 11.2 6.46V6.4H3.2V8H8.1C7.86 8.22667 7.64333 8.47333 7.45 8.74C7.25667 9.00667 7.08667 9.29333 6.94 9.6H3.2V11.2H6.46C6.43333 11.3333 6.41667 11.4633 6.41 11.59C6.40333 11.7167 6.4 11.8533 6.4 12C6.4 12.44 6.44 12.85 6.52 13.23C6.6 13.61 6.74 14 6.94 14.4Z" fill="white"/>
</svg>
