<svg width="14" height="14" viewBox="0 0 14 14" fill="none" xmlns="http://www.w3.org/2000/svg">
<mask id="mask0_228_766" style="mask-type:alpha" maskUnits="userSpaceOnUse" x="0" y="0" width="14" height="14">
<rect width="14" height="14" fill="#D9D9D9"/>
</mask>
<g mask="url(#mask0_228_766)">
<path d="M3.49967 11.6666C3.01356 11.6666 2.60037 11.4964 2.26009 11.1562C1.91981 10.8159 1.74967 10.4027 1.74967 9.91658H0.583008V3.49992C0.583008 3.17909 0.697244 2.90443 0.925716 2.67596C1.15419 2.44749 1.42884 2.33325 1.74967 2.33325H9.91634V4.66659H11.6663L13.4163 6.99992V9.91658H12.2497C12.2497 10.4027 12.0795 10.8159 11.7393 11.1562C11.399 11.4964 10.9858 11.6666 10.4997 11.6666C10.0136 11.6666 9.60037 11.4964 9.26009 11.1562C8.91981 10.8159 8.74967 10.4027 8.74967 9.91658H5.24967C5.24967 10.4027 5.07954 10.8159 4.73926 11.1562C4.39898 11.4964 3.98579 11.6666 3.49967 11.6666ZM3.49967 10.4999C3.66495 10.4999 3.80349 10.444 3.9153 10.3322C4.0271 10.2204 4.08301 10.0819 4.08301 9.91658C4.08301 9.75131 4.0271 9.61277 3.9153 9.50096C3.80349 9.38915 3.66495 9.33325 3.49967 9.33325C3.3344 9.33325 3.19585 9.38915 3.08405 9.50096C2.97224 9.61277 2.91634 9.75131 2.91634 9.91658C2.91634 10.0819 2.97224 10.2204 3.08405 10.3322C3.19585 10.444 3.3344 10.4999 3.49967 10.4999ZM10.4997 10.4999C10.665 10.4999 10.8035 10.444 10.9153 10.3322C11.0271 10.2204 11.083 10.0819 11.083 9.91658C11.083 9.75131 11.0271 9.61277 10.9153 9.50096C10.8035 9.38915 10.665 9.33325 10.4997 9.33325C10.3344 9.33325 10.1959 9.38915 10.084 9.50096C9.97224 9.61277 9.91634 9.75131 9.91634 9.91658C9.91634 10.0819 9.97224 10.2204 10.084 10.3322C10.1959 10.444 10.3344 10.4999 10.4997 10.4999ZM9.91634 7.58325H12.3955L11.083 5.83325H9.91634V7.58325Z" fill="black"/>
</g>
</svg>
