<svg width="12" height="14" viewBox="0 0 12 14" fill="none" xmlns="http://www.w3.org/2000/svg">
<path d="M5.33333 11.9499V7.38325L1.33333 5.06659V9.63325L5.33333 11.9499ZM6.66667 11.9499L10.6667 9.63325V5.06659L6.66667 7.38325V11.9499ZM5.33333 13.4833L0.666667 10.7999C0.455556 10.6777 0.291667 10.5166 0.175 10.3166C0.0583333 10.1166 0 9.89436 0 9.64992V4.34992C0 4.10547 0.0583333 3.88325 0.175 3.68325C0.291667 3.48325 0.455556 3.32214 0.666667 3.19992L5.33333 0.516585C5.54444 0.394363 5.76667 0.333252 6 0.333252C6.23333 0.333252 6.45556 0.394363 6.66667 0.516585L11.3333 3.19992C11.5444 3.32214 11.7083 3.48325 11.825 3.68325C11.9417 3.88325 12 4.10547 12 4.34992V9.64992C12 9.89436 11.9417 10.1166 11.825 10.3166C11.7083 10.5166 11.5444 10.6777 11.3333 10.7999L6.66667 13.4833C6.45556 13.6055 6.23333 13.6666 6 13.6666C5.76667 13.6666 5.54444 13.6055 5.33333 13.4833ZM8.66667 4.68325L9.95 3.94992L6 1.66659L4.7 2.41659L8.66667 4.68325ZM6 6.23325L7.3 5.48325L3.35 3.19992L2.05 3.94992L6 6.23325Z" fill="#1C1B1F"/>
</svg>
